Coordinates
version=1
nRows=32
nColumns=12
inDegrees=yes

Units are S.I. units (second, meters, Newtons, ...)
Angles are in degrees

endheader
time	SC_y	SC_z	SC_x	AC_y	AC_z	AC_x	GH_y	GH_z	GH_yy	EL_x	PS_y
       0.0               -26.1          17.64          78.46          62.01         -15.89         -17.12         -86.49         -11.42          97.12           99.8          121.3
      0.04              -26.11          17.65          78.46          62.01         -15.89         -17.12          -86.5         -11.42          97.11          99.79          121.3
      0.08              -26.11          17.65          78.46           62.0         -15.89         -17.12         -86.51         -11.42           97.1          99.79          121.3
      0.12              -26.11          17.65          78.46           62.0         -15.88         -17.11         -86.52         -11.42          97.09          99.78          121.3
      0.16              -26.11          17.65          78.46           62.0         -15.88          -17.1         -86.52         -11.42          97.08          99.78          121.3
       0.2              -26.11          17.66          78.46           62.0         -15.88          -17.1         -86.53         -11.42          97.07          99.77          121.3
      0.24              -26.11          17.66          78.46          61.99         -15.87         -17.09         -86.54         -11.41          97.06          99.76          121.2
      0.28              -26.12          17.66          78.46          61.99         -15.87         -17.09         -86.55         -11.41          97.05          99.76          121.2
      0.32              -26.12          17.67          78.46          61.99         -15.86         -17.08         -86.57         -11.41          97.03          99.75          121.2
      0.36              -26.12          17.67          78.46          61.98         -15.86         -17.07         -86.58         -11.41          97.02          99.74          121.2
       0.4              -26.12          17.68          78.46          61.98         -15.85         -17.06         -86.59         -11.41           97.0          99.73          121.2
      0.44              -26.13          17.68          78.46          61.97         -15.85         -17.06          -86.6         -11.41          96.99          99.72          121.1
      0.48              -26.13          17.69          78.46          61.97         -15.84         -17.05         -86.62          -11.4          96.97          99.71          121.1
      0.52              -26.13          17.69          78.47          61.96         -15.83         -17.04         -86.64          -11.4          96.95           99.7          121.1
      0.56              -26.14           17.7          78.47          61.96         -15.82         -17.02         -86.65          -11.4          96.93          99.69          121.1
       0.6              -26.14           17.7          78.47          61.95         -15.82         -17.01         -86.67          -11.4           96.9          99.68          121.0
      0.64              -26.15          17.71          78.47          61.94         -15.81          -17.0         -86.69         -11.39          96.88          99.66          121.0
      0.68              -26.15          17.72          78.47          61.94          -15.8         -16.99         -86.72         -11.39          96.85          99.65          121.0
      0.72              -26.16          17.73          78.47          61.93         -15.79         -16.97         -86.74         -11.38          96.82          99.63          120.9
      0.76              -26.16          17.73          78.47          61.92         -15.77         -16.95         -86.77         -11.38          96.79          99.61          120.9
       0.8              -26.17          17.74          78.47          61.91         -15.76         -16.93          -86.8         -11.38          96.76          99.59          120.8
      0.84              -26.18          17.76          78.47           61.9         -15.75         -16.91         -86.83         -11.37          96.72          99.57          120.8
      0.88              -26.18          17.77          78.47          61.89         -15.73         -16.89         -86.87         -11.37          96.67          99.55          120.7
      0.92              -26.19          17.78          78.47          61.87         -15.71         -16.87         -86.91         -11.36          96.63          99.52          120.6
      0.96               -26.2           17.8          78.48          61.86         -15.69         -16.84         -86.95         -11.35          96.57          99.49          120.6
       1.0              -26.21          17.81          78.48          61.84         -15.67         -16.81          -87.0         -11.35          96.51          99.46          120.5
      1.04              -26.22          17.83          78.48          61.82         -15.65         -16.77         -87.05         -11.34          96.45          99.42          120.4
      1.08              -26.24          17.85          78.48           61.8         -15.62         -16.73         -87.12         -11.33          96.37          99.38          120.3
      1.12              -26.25          17.87          78.48          61.78         -15.59         -16.69         -87.19         -11.32          96.29          99.33          120.2
      1.16              -26.27           17.9          78.49          61.75         -15.55         -16.64         -87.27         -11.31          96.19          99.28          120.1
       1.2              -26.29          17.93          78.49          61.72         -15.51         -16.58         -87.36         -11.29          96.08          99.22          119.9
      1.24              -26.31          17.97          78.49          61.69         -15.47         -16.52         -87.46         -11.28          95.96          99.15          119.7
